<svg data-name="Group 203" xmlns="http://www.w3.org/2000/svg" width="65.692" height="88.512" viewBox="0 0 65.692 88.512">
  <style>*{fill: none}</style>
  <g class="a">
    <ellipse id="Ellipse_297" data-name="Ellipse 297" cx="1.995" cy="1.496" rx="1.995" ry="1.496" transform="translate(30.936 32.298)" fill="#3aa65a"/>
    <path id="Path_3723" data-name="Path 3723" d="M147.915,130.575h25.931a1.729,1.729,0,0,0,1.729-1.729V112.6l2.333,2a1.729,1.729,0,1,0,2.25-2.625L162.005,96.417a1.729,1.729,0,0,0-2.25,0L141.6,111.975a1.729,1.729,0,0,0,2.25,2.625l2.333-2v16.245A1.729,1.729,0,0,0,147.915,130.575Zm1.729-20.938,11.237-9.632,11.237,9.632v17.48h-9.508V120.2a1.729,1.729,0,0,0-3.457,0v6.915h-9.508Z" transform="translate(-128.034 -79.404)" fill="#3aa65a"/>
    <path id="Path_3724" data-name="Path 3724" d="M97.6,87.985a1.729,1.729,0,0,0,2.485,0c11.034-11.389,31.6-37.009,31.6-54.1a34.189,34.189,0,0,0-4.743-17.295,1.729,1.729,0,0,0-2.981,1.751,30.73,30.73,0,0,1,4.267,15.543c0,17.49-23.647,44.157-29.389,50.373C93.1,78.04,69.458,51.373,69.458,33.883c0-16.493,13.458-30.426,29.389-30.426a28.116,28.116,0,0,1,14.974,4.37A1.729,1.729,0,1,0,115.661,4.9,31.568,31.568,0,0,0,98.846,0C80.426,0,66,16.036,66,33.883c0,17.074,20.536,42.678,31.6,54.1Z" transform="translate(-66)" fill="#3aa65a"/>
    <ellipse id="Ellipse_298" data-name="Ellipse 298" cx="1.496" cy="1.995" rx="1.496" ry="1.995" transform="translate(52.88 9.355)" fill="#3aa65a"/>
  </g>
</svg>
