<svg xmlns="http://www.w3.org/2000/svg" width="82.612" height="82.464" viewBox="0 0 82.612 82.464">
  <g id="Group_204" data-name="Group 204" transform="translate(-4.274)">
    <g transform="translate(4.274)">
      <path class="stroke" data-name="Path 3725" d="M41.307,5.958A4.841,4.841,0,1,0,46.147,10.8,4.846,4.846,0,0,0,41.307,5.958Zm0,7.261a2.42,2.42,0,1,1,2.42-2.42A2.423,2.423,0,0,1,41.307,13.219Zm41.3,5.709a1.219,1.219,0,0,0-.743-1.1L42.435.693a2.831,2.831,0,0,0-2.256,0L.745,17.83A1.222,1.222,0,0,0,0,18.964V22.92a4.442,4.442,0,0,0,4.437,4.437h.953a4.588,4.588,0,0,0,5.1,6.651v34.5a2.608,2.608,0,0,0-3.066,2.5V73.3H4.438A4.442,4.442,0,0,0,0,77.74v3.166a2.019,2.019,0,0,0,2.017,2.017H80.6a2.019,2.019,0,0,0,2.017-2.017V77.74A4.442,4.442,0,0,0,78.176,73.3H75.191V71.009a2.6,2.6,0,0,0-3.066-2.5v-34.5a4.594,4.594,0,0,0,5.1-6.651h.953a4.442,4.442,0,0,0,4.437-4.437V18.964c0-.01,0-.008,0-.036ZM9.44,31.713a2.178,2.178,0,0,1,0-4.356H22.514a2.178,2.178,0,1,1-2.14,2.607A1.21,1.21,0,0,0,18,30.432a4.563,4.563,0,0,0,1.04,2.119V53.44a1.21,1.21,0,0,0,2.42,0V34.008a4.594,4.594,0,0,0,5.1-6.651h4.165a4.588,4.588,0,0,0,5.1,6.651v34.5a2.608,2.608,0,0,0-3.066,2.5V73.3H24.527V71.009a2.6,2.6,0,0,0-3.066-2.5V59.087a1.21,1.21,0,0,0-2.42,0v9.421H12.909V32.551a4.562,4.562,0,0,0,1.04-2.119,1.21,1.21,0,0,0-2.375-.468A2.178,2.178,0,0,1,9.44,31.713Zm42.451-4.356h4.165a4.588,4.588,0,0,0,5.1,6.651v34.5a2.607,2.607,0,0,0-3.066,2.5V73.3H49.859V71.009a2.6,2.6,0,0,0-3.066-2.5v-34.5a4.594,4.594,0,0,0,5.1-6.651ZM47.438,71.009V73.3H35.176V71.009a.081.081,0,0,1,.081-.081h12.1A.081.081,0,0,1,47.438,71.009Zm.4-39.3a2.178,2.178,0,0,1-2.135-1.749,1.21,1.21,0,1,0-2.375.468,4.563,4.563,0,0,0,1.04,2.119V68.508H38.241V32.551a4.562,4.562,0,0,0,1.04-2.119,1.21,1.21,0,0,0-2.375-.468,2.178,2.178,0,1,1-2.14-2.607H47.846a2.178,2.178,0,0,1,0,4.356Zm-38,39.3a.081.081,0,0,1,.081-.081h12.1a.081.081,0,0,1,.081.081V73.3H9.843Zm68.332,4.714a2.019,2.019,0,0,1,2.017,2.017V80.5H2.421V77.74a2.019,2.019,0,0,1,2.017-2.017ZM72.69,70.929a.081.081,0,0,1,.081.081V73.3H60.508V71.009a.081.081,0,0,1,.081-.081Zm.484-39.216a2.178,2.178,0,0,1-2.135-1.749,1.21,1.21,0,1,0-2.375.468,4.563,4.563,0,0,0,1.04,2.119V68.508H63.573V32.551a4.562,4.562,0,0,0,1.04-2.119,1.21,1.21,0,0,0-2.375-.468,2.178,2.178,0,1,1-2.14-2.607H73.178a2.178,2.178,0,0,1,0,4.356Zm7.019-8.793a2.019,2.019,0,0,1-2.017,2.017H4.438A2.019,2.019,0,0,1,2.421,22.92V20.157h56.5a1.21,1.21,0,0,0,0-2.42H7.032L41.146,2.911a.405.405,0,0,1,.324,0L75.582,17.737H64.572a1.21,1.21,0,1,0,0,2.42H80.192V22.92Z" transform="translate(-0.001 -0.458)" fill="#3aa65a"/>
    </g>
  </g>
</svg>
