<svg id="Group_202" data-name="Group 202" xmlns="http://www.w3.org/2000/svg" width="91.585" height="91.59" viewBox="0 0 91.585 91.59">
  <g id="edit">
    <path class="stroke" data-name="Path 3716" d="M13.3,59.5a1.906,1.906,0,0,1-1.874-2.278l2.7-13.49a1.871,1.871,0,0,1,.523-.977L44.334,13.068a5.735,5.735,0,0,1,8.094,0l5.4,5.4a5.728,5.728,0,0,1,0,8.094L28.142,56.241a1.9,1.9,0,0,1-.977.523l-13.49,2.7A2.024,2.024,0,0,1,13.3,59.5Zm4.457-14.46L15.739,55.153l10.117-2.023L55.13,23.856a1.909,1.909,0,0,0,0-2.7l-5.4-5.4a1.909,1.909,0,0,0-2.7,0Zm9.033,9.854h.038Z" transform="translate(32.086 32.094)" fill="#3aa65a"/>
    <path class="stroke" data-name="Path 3717" d="M36.254,71.693H9.541A9.549,9.549,0,0,1,0,62.152V12.541A9.549,9.549,0,0,1,9.541,3h7.633a1.908,1.908,0,0,1,0,3.816H9.541a5.731,5.731,0,0,0-5.724,5.724V62.152a5.731,5.731,0,0,0,5.724,5.724H36.254a1.908,1.908,0,1,1,0,3.816Z" transform="translate(0 8.449)" fill="#3aa65a"/>
    <path class="stroke" data-name="Path 3718" d="M29.173,37.346a1.909,1.909,0,0,1-1.908-1.908v-22.9a5.731,5.731,0,0,0-5.724-5.724H13.908a1.908,1.908,0,1,1,0-3.816h7.633a9.549,9.549,0,0,1,9.541,9.541v22.9A1.909,1.909,0,0,1,29.173,37.346Z" transform="translate(33.795 8.449)" fill="#3aa65a"/>
    <path class="stroke" data-name="Path 3719" d="M32.622,22.9H9.724A5.731,5.731,0,0,1,4,17.173V9.541A1.909,1.909,0,0,1,5.908,7.633h5.915a9.543,9.543,0,0,1,18.7,0h5.915a1.909,1.909,0,0,1,1.908,1.908v7.633A5.731,5.731,0,0,1,32.622,22.9ZM7.816,11.449v5.724a1.914,1.914,0,0,0,1.908,1.908h22.9a1.914,1.914,0,0,0,1.908-1.908V11.449H28.806A1.909,1.909,0,0,1,26.9,9.541a5.724,5.724,0,1,0-11.449,0,1.909,1.909,0,0,1-1.908,1.908Z" transform="translate(11.265)" fill="#3aa65a"/>
    <path class="stroke" data-name="Path 3720" d="M43.071,11.816H4.908A1.908,1.908,0,1,1,4.908,8H43.071a1.908,1.908,0,1,1,0,3.816Z" transform="translate(8.449 22.53)" fill="#3aa65a"/>
    <path class="stroke" data-name="Path 3721" d="M43.071,14.816H4.908a1.908,1.908,0,1,1,0-3.816H43.071a1.908,1.908,0,1,1,0,3.816Z" transform="translate(8.449 30.979)" fill="#3aa65a"/>
    <path class="stroke" data-name="Path 3722" d="M43.071,17.816H4.908a1.908,1.908,0,0,1,0-3.816H43.071a1.908,1.908,0,0,1,0,3.816Z" transform="translate(8.449 39.428)" fill="#3aa65a"/>
  </g>
</svg>
