<svg data-name="Group 210" xmlns="http://www.w3.org/2000/svg" width="90.235" height="90.555" viewBox="0 0 90.235 90.555">
  <g>
    <ellipse class="stroke" data-name="Ellipse 299" cx="1" cy="1.5" rx="1" ry="1.5" transform="translate(37.935 20.331)" fill="#3aa65a"/>
    <ellipse class="stroke" data-name="Ellipse 300" cx="2" cy="1.5" rx="2" ry="1.5" transform="translate(49.935 20.331)" fill="#3aa65a"/>
    <path class="stroke" data-name="Path 3728" d="M34.842,23.921H29v2.921h5.842A5.848,5.848,0,0,0,40.685,21H37.763A2.924,2.924,0,0,1,34.842,23.921Z" transform="translate(11.896 8.211)" fill="#3aa65a"/>
    <path class="stroke" data-name="Path 3729" d="M31,15h2.921v5.842H31Z" transform="translate(12.817 5.448)" fill="#3aa65a"/>
    <path class="stroke" data-name="Path 3730" d="M5,43H7.921v2.921H5Z" transform="translate(0.842 18.344)" fill="#3aa65a"/>
    <path class="stroke" data-name="Path 3731" d="M9,43h8.763v2.921H9Z" transform="translate(2.685 18.344)" fill="#3aa65a"/>
    <path class="stroke" data-name="Path 3732" d="M5,47H19.606v2.921H5Z" transform="translate(0.842 20.186)" fill="#3aa65a"/>
    <path class="stroke" data-name="Path 3733" d="M5,51H19.606v2.921H5Z" transform="translate(0.842 22.028)" fill="#3aa65a"/>
    <path class="stroke" data-name="Path 3734" d="M52.358,55.479l-2.065,2.065,5.536,5.536L68.533,47.2l-2.281-1.826L55.586,58.707Z" transform="translate(21.703 19.438)" fill="#3aa65a"/>
    <path class="stroke" data-name="Path 3735" d="M85.713,85.713H71.107V71.107h8.763V68.186H68.186V76.95H53.58V75.489a7.344,7.344,0,0,0-.326-2.16A35.052,35.052,0,0,0,62.293,7.8,16.06,16.06,0,0,0,49.186,1H43.919A12.983,12.983,0,0,0,33.375,6.387,35.258,35.258,0,0,0,11.224,38.975,34.861,34.861,0,0,0,15.915,56.5H3.921A2.924,2.924,0,0,0,1,59.423v26.29a2.924,2.924,0,0,0,2.921,2.921H24.369a2.924,2.924,0,0,0,2.921-2.921V79.871H38.975v7.3a4.387,4.387,0,0,0,4.382,4.382H49.2a4.387,4.387,0,0,0,4.382-4.382v-7.3H68.186v8.763H88.634V76.95H85.713ZM50.659,75.489V76.95H41.9V75.489a4.376,4.376,0,0,1,.358-1.715,35.68,35.68,0,0,0,4.024.254,35.311,35.311,0,0,0,4.03-.238A4.371,4.371,0,0,1,50.659,75.489ZM78.41,38.975A32.169,32.169,0,0,1,46.278,71.107,31.807,31.807,0,0,1,27.29,64.875V61.129A29.189,29.189,0,1,0,65.25,16.777a16.028,16.028,0,0,0-.638-4.2,31.954,31.954,0,0,1,13.8,26.4ZM33.132,30.211a2.921,2.921,0,1,1,0-5.842Zm-5.489-9.77.7,3.516a5.829,5.829,0,0,0,4.786,9.175h.117a10.241,10.241,0,0,0,6.571,8.121l-.564,2.258A17.778,17.778,0,0,0,25.429,54.929a26.19,26.19,0,0,1,2.214-34.487Zm31.779,3.927a2.921,2.921,0,1,1,0,5.842Zm-.117,8.763h.117a5.829,5.829,0,0,0,4.785-9.177l.7-3.516a26.188,26.188,0,0,1,2.216,34.487A17.78,17.78,0,0,0,53.3,43.51l-.564-2.258a10.236,10.236,0,0,0,6.571-8.119ZM43.356,41.9H49.2c.228,0,.453-.019.676-.034l.59,2.362-4.258,3.149-4.123-3.136.594-2.376C42.9,41.877,43.129,41.9,43.356,41.9Zm9.868,4.556-.733,3.666-3.311-1.31,3.329-2.463c.24.035.481.063.716.107ZM46.6,53.58h-.815l-.776-2.327,1.19-.482,1.182.467Zm-3.334-4.773-3.207,1.3-.73-3.653c.232-.044.469-.072.7-.1ZM36.52,47.291l1.369,6.843L42.3,52.351l.919,2.753-2.333,9.6A26.266,26.266,0,0,1,27.7,57.555,14.817,14.817,0,0,1,36.52,47.291Zm9.364,9.21h.64l2.22,8.638c-.812.077-1.633.126-2.465.126s-1.671-.048-2.493-.126ZM51.65,64.71,49.178,55.1l.926-2.779,4.564,1.807,1.366-6.831a14.822,14.822,0,0,1,8.823,10.265A26.258,26.258,0,0,1,51.65,64.71ZM56.5,31.672a7.311,7.311,0,0,1-7.3,7.3H43.356a7.311,7.311,0,0,1-7.3-7.3V19.987a4.387,4.387,0,0,1,4.382-4.382h.777a8.741,8.741,0,0,0,6.526,2.921h7.3A1.463,1.463,0,0,1,56.5,19.987ZM43.919,3.921h5.267a13.158,13.158,0,0,1,12.9,15.739l-.447,2.232a5.788,5.788,0,0,0-2.219-.444V19.987a4.387,4.387,0,0,0-4.382-4.382h-7.3A5.848,5.848,0,0,1,41.9,9.763H38.975a8.732,8.732,0,0,0,.521,2.981,7.314,7.314,0,0,0-6.364,7.243v1.461a5.8,5.8,0,0,0-2.22.444l-.551-2.758a7.813,7.813,0,0,1-.15-1.52,7.733,7.733,0,0,1,3.451-6.45l.657-.438.169-.422a10.108,10.108,0,0,1,9.429-6.383ZM14.145,38.975A32.347,32.347,0,0,1,28.936,11.95a10.614,10.614,0,0,0-1.592,4.794A29.1,29.1,0,0,0,22.964,56.5h-3.6a31.947,31.947,0,0,1-5.219-17.527ZM3.921,85.713V59.423H24.369v26.29ZM27.29,76.95v-8.5a34.558,34.558,0,0,0,12.018,4.865,7.306,7.306,0,0,0-.333,2.176V76.95ZM50.659,87.174A1.463,1.463,0,0,1,49.2,88.634H43.356A1.463,1.463,0,0,1,41.9,87.174v-7.3h8.763Z" transform="translate(-1 -1)" fill="#3aa65a"/>
    <path class="stroke" data-name="Path 3736" d="M5,55H19.606v2.921H5Z" transform="translate(0.842 23.871)" fill="#3aa65a"/>
  </g>
</svg>
