<svg class="icon" xmlns="http://www.w3.org/2000/svg" width="114.85" height="80.285" viewBox="0 0 114.85 80.285">
  <g  transform="translate(0 0)">
    <g  data-name="Group 206">
      <g  data-name="Group 205">
        <path class="stroke" data-name="Path 3726" d="M114.53,119.309c-.594-2.812-3.635-5.075-9.144-6.744a64.435,64.435,0,0,0-16.825-2.355L87.943,84.2c-.846-2.56-3.886-4.641-9.03-6.2a67.889,67.889,0,0,0-18.905-2.4A66.069,66.069,0,0,0,41.286,78c-4.138,1.28-9.1,3.658-9.1,7.75a4.21,4.21,0,0,0,.069.754l.251,10.424A27.37,27.37,0,1,0,44.6,145.049a68.261,68.261,0,0,0,14.7,1.6c1.166,6.332,14.9,9.236,27.707,9.236a66.411,66.411,0,0,0,18.745-2.423c4.183-1.28,9.1-3.68,9.1-7.772ZM42.566,82.389a61.922,61.922,0,0,1,17.4-2.217,64.063,64.063,0,0,1,17.6,2.217c4.984,1.509,6.058,3.063,6.058,3.383s-1.074,1.875-6.058,3.383a64.653,64.653,0,0,1-17.58,2.217,62.766,62.766,0,0,1-16.848-2.057c-4.915-1.417-6.309-2.995-6.424-3.5,0-.023-.023-.046-.046-.069C36.668,85.27,38.2,83.738,42.566,82.389Zm41.423,9.03v5.715a2.316,2.316,0,0,0-.366,1.28c0,.3-1.074,1.875-6.035,3.383a63.769,63.769,0,0,1-17.58,2.217A65.4,65.4,0,0,1,44.44,102.3c-.069-.023-.137-.023-.183-.046a26.249,26.249,0,0,0-7.132-4.046l-.16-6.447a25.327,25.327,0,0,0,4.938,1.9,67.566,67.566,0,0,0,18.128,2.217,67.6,67.6,0,0,0,18.883-2.4A22.523,22.523,0,0,0,83.989,91.419ZM42.68,140.66a22.785,22.785,0,1,1-15.339-39.64,23.283,23.283,0,0,1,6.744,1.006,22.254,22.254,0,0,1,8.093,4.5,22.755,22.755,0,0,1,7.5,12.687,23.908,23.908,0,0,1,.457,4.595A22.614,22.614,0,0,1,42.68,140.66Zm5.807.5a27.6,27.6,0,0,0,4.389-7.521c1.966.16,4.023.274,6.149.3a2.35,2.35,0,0,0,0,.8l.091,7.361A69.554,69.554,0,0,1,48.487,141.163Zm6.1-20.071c1.349.091,2.743.137,4.183.16a3.657,3.657,0,0,0,.114.48l.091,7.612c-1.646-.023-3.269-.091-4.8-.206a28.1,28.1,0,0,0,.526-5.349C54.7,122.9,54.659,122.006,54.59,121.092Zm5.578-4.389h-.183c-2.217,0-4.321-.091-6.287-.251a27.532,27.532,0,0,0-4.069-8.5,82.608,82.608,0,0,0,10.356.663,67.6,67.6,0,0,0,18.883-2.4,24.2,24.2,0,0,0,5.1-2.1v6.1a64.758,64.758,0,0,0-15.362,2.1Q62.568,114.028,60.168,116.7Zm3.155,3.406c.389-.709,2.1-2.1,6.561-3.338a63.314,63.314,0,0,1,16.437-1.943H86.5A63.776,63.776,0,0,1,104.083,117c4.8,1.463,5.967,2.926,6.035,3.315v.023c-.023.343-1.143,1.92-6.218,3.429a63.678,63.678,0,0,1-17.4,2.149,65.323,65.323,0,0,1-16.368-1.9c-4.3-1.166-6.149-2.515-6.7-3.292A1.96,1.96,0,0,0,63.323,120.109Zm46.955,25.558c0,.32-1.006,1.9-5.875,3.406a61.43,61.43,0,0,1-17.419,2.24,62.324,62.324,0,0,1-17.351-2.172c-4.366-1.349-5.829-2.858-5.829-3.36v-.046l-.023-1.394-.069-5.166a28.244,28.244,0,0,0,5.692,2.057,69.967,69.967,0,0,0,17.1,1.943,67.091,67.091,0,0,0,18.814-2.4,20.46,20.46,0,0,0,4.961-2.08Zm-.3-12.665c0,.32-1.052,1.875-5.967,3.383A63.132,63.132,0,0,1,86.48,138.58c-12.436,0-20.894-2.766-22.86-4.961l-.091-7.224c5.4,2.812,14.471,4.092,22.975,4.092a68.251,68.251,0,0,0,18.654-2.332,25,25,0,0,0,5.144-2.08v5.715h0C110.278,132.133,109.981,132.545,109.981,133Z" transform="translate(0 -75.6)" fill="#3aa65a"/>
      </g>
    </g>
    <g  data-name="Group 208" transform="translate(12.276 33.102)">
      <g id="" data-name="Group 207">
        <path id="stroke" data-name="Path 3727" d="M68.788,220.4a15.088,15.088,0,1,0,15.088,15.088A15.088,15.088,0,0,0,68.788,220.4Zm0,25.626A10.516,10.516,0,1,1,79.3,235.511,10.517,10.517,0,0,1,68.788,246.026Z" transform="translate(-53.7 -220.4)" fill="#3aa65a"/>
      </g>
    </g>
  </g>
</svg>
