<svg data-name="Group 201" xmlns="http://www.w3.org/2000/svg" width="66.838" height="87.36" viewBox="0 0 66.838 87.36">
  <g data-name="Group 200" transform="translate(0 0)">
    <g transform="translate(0)">
      <path class="stroke" data-name="Path 3703" d="M195.33,27.863H153.042a1.28,1.28,0,1,0,0,2.559h42.289a1.28,1.28,0,1,0,0-2.559Z" transform="translate(-136.129 -23.109)" fill="#fff"/>
      <path class="stroke" data-name="Path 3704" d="M120.393,266.808a3.032,3.032,0,0,0-3.028-3.028H104.7a3.032,3.032,0,0,0-3.028,3.028v9.9a3.032,3.032,0,0,0,3.028,3.028h12.662a3.032,3.032,0,0,0,3.028-3.028Zm-2.559,9.9a.469.469,0,0,1-.469.469H104.7a.469.469,0,0,1-.469-.469v-9.9a.469.469,0,0,1,.469-.469h12.662a.469.469,0,0,1,.469.469Z" transform="translate(-94.588 -218.773)" fill="#fff"/>
      <path class="stroke" data-name="Path 3705" d="M117.365,376.04H104.7a3.032,3.032,0,0,0-3.028,3.028v9.9A3.032,3.032,0,0,0,104.7,392h12.662a3.032,3.032,0,0,0,3.028-3.028v-9.9A3.031,3.031,0,0,0,117.365,376.04Zm.469,12.931a.469.469,0,0,1-.469.469H104.7a.469.469,0,0,1-.469-.469v-9.9a.469.469,0,0,1,.469-.469h12.662a.469.469,0,0,1,.469.469Z" transform="translate(-94.588 -311.879)" fill="#fff"/>
      <path class="stroke" data-name="Path 3706" d="M259.636,273.447H232.921a1.28,1.28,0,0,0,0,2.559h26.715a1.28,1.28,0,0,0,0-2.559Z" transform="translate(-202.379 -226.79)" fill="#fff"/>
      <path class="stroke" data-name="Path 3707" d="M259.636,303.047H232.921a1.28,1.28,0,0,0,0,2.559h26.715a1.28,1.28,0,0,0,0-2.559Z" transform="translate(-202.379 -251.34)" fill="#fff"/>
      <path class="stroke" data-name="Path 3708" d="M259.636,332.647H232.921a1.28,1.28,0,1,0,0,2.559h26.715a1.28,1.28,0,1,0,0-2.559Z" transform="translate(-202.379 -275.889)" fill="#fff"/>
      <path class="stroke" data-name="Path 3709" d="M259.636,385.706H232.921a1.28,1.28,0,0,0,0,2.559h26.715a1.28,1.28,0,0,0,0-2.559Z" transform="translate(-202.379 -319.895)" fill="#fff"/>
      <path class="stroke" data-name="Path 3710" d="M259.636,415.306H232.921a1.28,1.28,0,0,0,0,2.559h26.715a1.28,1.28,0,0,0,0-2.559Z" transform="translate(-202.379 -344.445)" fill="#fff"/>
      <path class="stroke" data-name="Path 3711" d="M259.636,444.906H232.921a1.28,1.28,0,0,0,0,2.559h26.715a1.28,1.28,0,0,0,0-2.559Z" transform="translate(-202.379 -368.994)" fill="#fff"/>
      <path class="stroke" data-name="Path 3712" d="M139.451,294.351l-2.191,2.191-1.154-1.154a1.28,1.28,0,0,0-1.81,1.81l2.059,2.059a1.28,1.28,0,0,0,1.81,0l3.1-3.1a1.28,1.28,0,0,0-1.81-1.81Z" transform="translate(-121.333 -243.817)" fill="#fff"/>
      <path class="stroke" data-name="Path 3713" d="M139.451,406.609l-2.191,2.191-1.154-1.154a1.28,1.28,0,1,0-1.809,1.81l2.059,2.059a1.28,1.28,0,0,0,1.81,0l3.1-3.1a1.28,1.28,0,0,0-1.81-1.81Z" transform="translate(-121.333 -336.921)" fill="#fff"/>
      <path class="stroke" data-name="Path 3714" d="M191.86,114.628a13.2,13.2,0,0,0,3.306-25.972,1.28,1.28,0,0,0-.639,2.478,10.628,10.628,0,0,1,6.231,16.115v-.031a5.1,5.1,0,0,0-4.227-5.017,5.636,5.636,0,1,0-9.341,0,5.1,5.1,0,0,0-4.227,5.017v.031a10.628,10.628,0,0,1,6.232-16.115,1.28,1.28,0,0,0-.639-2.478,13.2,13.2,0,0,0,3.306,25.972Zm0-18.655a3.077,3.077,0,1,1-3.077,3.077A3.08,3.08,0,0,1,191.86,95.973Zm-6.338,11.245a2.535,2.535,0,0,1,2.533-2.533h7.611a2.535,2.535,0,0,1,2.533,2.533v2.749a10.612,10.612,0,0,1-12.677,0v-2.749Z" transform="translate(-158.442 -73.495)" fill="#fff"/>
      <g data-name="Group 199" transform="translate(0)">
        <path class="stroke" data-name="Path 3715" d="M60.14,4.56V82.8a4.565,4.565,0,0,0,4.56,4.56h57.717a4.565,4.565,0,0,0,4.56-4.56V46.666a1.28,1.28,0,1,0-2.559,0V82.8a2,2,0,0,1-2,2H64.7a2,2,0,0,1-2-2V12.068h61.719V40.694a1.28,1.28,0,0,0,2.559,0V4.56A4.565,4.565,0,0,0,122.417,0H64.7a4.565,4.565,0,0,0-4.56,4.56Zm11.95-2h50.327a2,2,0,0,1,2,2V9.508H72.09ZM69.53,9.508H62.7V4.56a2,2,0,0,1,2-2h4.83Z" transform="translate(-60.14 0)" fill="#fff"/>
      </g>
    </g>
  </g>
</svg>
