<svg xmlns="http://www.w3.org/2000/svg" width="102.905" height="80.037" viewBox="0 0 102.905 80.037">
  <g id="" data-name="noun_Upload_953234 (1)" transform="translate(-232.055 -28)">
    <g id="" data-name="Group 268" transform="translate(232.055 28)">
      <path class="stroke" data-name="Path 3774" d="M22.575,22A8.62,8.62,0,0,0,14,30.575v37.16a8.62,8.62,0,0,0,8.575,8.575H49.731a2.859,2.859,0,1,0,0-5.717H22.575a2.792,2.792,0,0,1-2.858-2.858V30.575a2.792,2.792,0,0,1,2.858-2.858h85.754a2.792,2.792,0,0,1,2.858,2.858v37.16a2.792,2.792,0,0,1-2.858,2.858H81.174a2.859,2.859,0,1,0,0,5.717h27.155a8.62,8.62,0,0,0,8.575-8.575V30.575A8.62,8.62,0,0,0,108.329,22ZM65.229,36.292a2.859,2.859,0,0,0-1.876.893L44.773,57.195a2.86,2.86,0,1,0,4.2,3.886l13.622-14.65V99.179a2.859,2.859,0,1,0,5.717,0V46.431l13.622,14.65a2.86,2.86,0,1,0,4.2-3.886L67.552,37.186a2.859,2.859,0,0,0-2.323-.893Z" transform="translate(-14 -22)" fill="#3aa65a"/>
    </g>
  </g>
</svg>
