<svg xmlns="http://www.w3.org/2000/svg" width="33.344" height="35.885" viewBox="0 0 33.344 35.885">
  <g id="noun_Alarm_Clock_1009043" data-name="noun_Alarm Clock_1009043" transform="translate(-5.795 -0.32)">
    <path id="Path_3763" data-name="Path 3763" d="M23.128,6.06V4.793h1.733V2.224H20.073V4.793h1.733V6.06a15.164,15.164,0,1,0,1.322,0ZM9.64,1.945c4.7-.41,6.692.65,8.363,2.6-2.57,1.987-8.981,6.119-11.052,7.707a9.544,9.544,0,0,1,.2-8.433C3.169,2.5,9.162-2.091,9.64,1.945Zm25.653,0c.479-4.035,6.471.558,2.485,1.876a9.546,9.546,0,0,1,.2,8.433c-2.071-1.588-8.482-5.72-11.052-7.707,1.671-1.951,3.659-3.011,8.362-2.6ZM24.332,21.277a1.869,1.869,0,1,1-2.064-1.815V10.167c0-.478.4-.487.4.012v9.283a1.858,1.858,0,0,1,1.12.532l5.957-2.255c.97-.367,1.253,1.016.535,1.288l-5.946,2.25Zm6.987-9.005a12.513,12.513,0,1,1-17.7,0A12.561,12.561,0,0,1,31.319,12.272Z" transform="translate(0 0)" fill="#3aa65a" fill-rule="evenodd"/>
  </g>
</svg>
