<svg xmlns="http://www.w3.org/2000/svg" width="33.495" height="35.728" viewBox="0 0 33.495 35.728"><defs><style>.a{fill:#5cd880;}</style></defs><path class="a" d="M11.165,13.4h4.466v4.466H11.165Zm6.7,0H22.33v4.466H17.864Zm6.7,0h4.466v4.466H24.563ZM4.466,26.8H8.932v4.466H4.466Zm6.7,0h4.466v4.466H11.165Zm6.7,0H22.33v4.466H17.864Zm-6.7-6.7h4.466v4.466H11.165Zm6.7,0H22.33v4.466H17.864Zm6.7,0h4.466v4.466H24.563Zm-20.1,0H8.932v4.466H4.466ZM29.029,0V2.233H24.563V0H8.932V2.233H4.466V0H0V35.728H33.495V0Zm2.233,33.495H2.233V8.932H31.262Z"/></svg>