<svg xmlns="http://www.w3.org/2000/svg" width="32.426" height="32.426" viewBox="0 0 32.426 32.426"><defs><style>.a{fill:#3aa65a;}</style></defs><path class="a" d="M16.3,0A16.213,16.213,0,1,0,32.51,16.213,16.214,16.214,0,0,0,16.3,0Zm7.511,11.728L16.042,23.6s-.006,0-.006.006a1.478,1.478,0,0,1-.113.186,1.456,1.456,0,0,1-.243.176c-.02.014-.041.03-.063.045a1.313,1.313,0,0,1-.4.166c-.047.012-.089.024-.138.032a1.368,1.368,0,0,1-.34,0,1.341,1.341,0,0,1-.237-.036,1.433,1.433,0,0,1-.233-.093,1.618,1.618,0,0,1-.195-.077.9.9,0,0,1-.107-.107c-.016-.014-.036-.018-.053-.032L9.394,19.686A1.418,1.418,0,1,1,11.32,17.6l3.273,3.028,6.84-10.455a1.419,1.419,0,0,1,2.375,1.552Z" transform="translate(-0.084)"/></svg>