<?xml version="1.0" encoding="utf-8"?>
<!-- Generator: Adobe Illustrator 25.4.1, SVG Export Plug-In . SVG Version: 6.00 Build 0)  -->
<svg version="1.1" id="Layer_1" xmlns="http://www.w3.org/2000/svg" xmlns:xlink="http://www.w3.org/1999/xlink" x="0px" y="0px"
	 viewBox="0 0 600 229.41" style="enable-background:new 0 0 600 229.41;" xml:space="preserve">
<g>
	<path style="fill:#009444;" d="M78.61,113.62h22.71c0.09,3.46-0.36,6.73-1.35,9.8c-0.99,3.08-2.47,5.81-4.45,8.19
		c-1.98,2.38-4.43,4.26-7.35,5.63c-2.92,1.37-6.27,2.06-10.04,2.06c-3.55,0-6.83-0.6-9.84-1.79c-3.01-1.19-5.63-2.89-7.85-5.09
		c-2.22-2.2-3.94-4.81-5.16-7.82c-1.21-3.01-1.82-6.31-1.82-9.91c0-3.59,0.62-6.88,1.85-9.87c1.24-2.99,2.98-5.57,5.22-7.75
		c2.25-2.18,4.87-3.86,7.88-5.05c3.01-1.19,6.29-1.79,9.84-1.79c3.1,0,5.92,0.43,8.46,1.28c2.54,0.85,4.79,2.06,6.77,3.61
		c1.98,1.55,3.66,3.43,5.05,5.63l-6.47,4.31c-1.3-2.25-3.11-4.04-5.42-5.39c-2.31-1.35-5.11-2.02-8.39-2.02
		c-3.01,0-5.76,0.71-8.26,2.12c-2.49,1.42-4.47,3.39-5.93,5.93c-1.46,2.54-2.19,5.54-2.19,9c0,3.41,0.72,6.41,2.16,9
		c1.44,2.58,3.39,4.59,5.86,6.03c2.47,1.44,5.26,2.16,8.36,2.16c2.11,0,4-0.29,5.66-0.88c1.66-0.58,3.1-1.42,4.31-2.49
		c1.21-1.08,2.22-2.31,3.03-3.71c0.81-1.39,1.42-2.87,1.82-4.45H78.61V113.62z"/>
	<path style="fill:#009444;" d="M108.6,104.93c1.21-2.96,2.93-5.54,5.16-7.72c2.22-2.18,4.83-3.89,7.82-5.12
		c2.99-1.24,6.21-1.85,9.67-1.85c3.55,0,6.81,0.62,9.77,1.85c2.97,1.24,5.56,2.94,7.78,5.12c2.22,2.18,3.94,4.75,5.16,7.72
		c1.21,2.97,1.82,6.22,1.82,9.77c0,3.5-0.61,6.76-1.82,9.77c-1.21,3.01-2.92,5.62-5.12,7.82c-2.2,2.2-4.78,3.92-7.75,5.16
		c-2.97,1.24-6.25,1.85-9.84,1.85c-3.5,0-6.75-0.62-9.74-1.85c-2.99-1.23-5.58-2.95-7.78-5.16c-2.2-2.2-3.91-4.81-5.12-7.82
		c-1.21-3.01-1.82-6.27-1.82-9.77C106.78,111.15,107.38,107.9,108.6,104.93z M117.29,123.33c1.39,2.52,3.29,4.5,5.69,5.96
		c2.4,1.46,5.16,2.19,8.26,2.19c3.14,0,5.92-0.73,8.32-2.19c2.4-1.46,4.29-3.45,5.66-5.96c1.37-2.52,2.06-5.39,2.06-8.63
		c0-3.24-0.67-6.12-2.02-8.66c-1.35-2.54-3.22-4.53-5.63-5.96c-2.4-1.44-5.2-2.16-8.39-2.16c-3.1,0-5.85,0.72-8.26,2.16
		c-2.4,1.44-4.3,3.43-5.69,5.96c-1.39,2.54-2.09,5.42-2.09,8.66C115.2,117.94,115.9,120.81,117.29,123.33z"/>
	<path style="fill:#009444;" d="M162.71,104.93c1.21-2.96,2.93-5.54,5.16-7.72c2.22-2.18,4.83-3.89,7.82-5.12
		c2.99-1.24,6.21-1.85,9.67-1.85c3.55,0,6.81,0.62,9.77,1.85c2.96,1.24,5.56,2.94,7.78,5.12c2.22,2.18,3.94,4.75,5.16,7.72
		c1.21,2.97,1.82,6.22,1.82,9.77c0,3.5-0.61,6.76-1.82,9.77c-1.21,3.01-2.92,5.62-5.12,7.82c-2.2,2.2-4.79,3.92-7.75,5.16
		c-2.96,1.24-6.24,1.85-9.84,1.85c-3.51,0-6.75-0.62-9.74-1.85c-2.99-1.23-5.58-2.95-7.78-5.16c-2.2-2.2-3.91-4.81-5.12-7.82
		c-1.21-3.01-1.82-6.27-1.82-9.77C160.89,111.15,161.5,107.9,162.71,104.93z M171.41,123.33c1.39,2.52,3.29,4.5,5.7,5.96
		c2.4,1.46,5.15,2.19,8.26,2.19c3.14,0,5.92-0.73,8.32-2.19c2.4-1.46,4.29-3.45,5.66-5.96c1.37-2.52,2.06-5.39,2.06-8.63
		c0-3.24-0.67-6.12-2.02-8.66c-1.35-2.54-3.22-4.53-5.63-5.96c-2.4-1.44-5.2-2.16-8.39-2.16c-3.1,0-5.85,0.72-8.26,2.16
		c-2.4,1.44-4.3,3.43-5.7,5.96c-1.39,2.54-2.09,5.42-2.09,8.66C169.32,117.94,170.01,120.81,171.41,123.33z"/>
	<path style="fill:#009444;" d="M225.86,91.12v47.17h-8.15V91.12H225.86z M222.62,138.29v-7.48h10.11c2.34,0,4.49-0.35,6.47-1.04
		c1.98-0.7,3.69-1.71,5.16-3.03c1.46-1.32,2.6-3,3.44-5.02c0.83-2.02,1.25-4.36,1.25-7.01c0-2.65-0.42-4.99-1.25-7.01
		c-0.83-2.02-1.98-3.71-3.44-5.05c-1.46-1.35-3.18-2.36-5.16-3.03c-1.98-0.67-4.13-1.01-6.47-1.01h-10.11v-7.48h10.31
		c4.81,0,9.03,0.98,12.67,2.93c3.64,1.95,6.48,4.7,8.53,8.22c2.04,3.53,3.07,7.67,3.07,12.43c0,4.76-1.02,8.91-3.07,12.43
		c-2.04,3.53-4.89,6.27-8.53,8.22c-3.64,1.95-7.86,2.93-12.67,2.93H222.62z"/>
	<path style="fill:#414042;" d="M286.98,114.37h21.9c0,3.28-0.49,6.39-1.48,9.33s-2.45,5.56-4.38,7.85c-1.93,2.29-4.3,4.1-7.11,5.42
		c-2.81,1.33-6.01,1.99-9.6,1.99c-3.41,0-6.58-0.6-9.5-1.79c-2.92-1.19-5.46-2.87-7.62-5.05c-2.16-2.18-3.83-4.75-5.02-7.72
		c-1.19-2.96-1.79-6.2-1.79-9.7c0-3.5,0.6-6.74,1.79-9.7c1.19-2.96,2.86-5.54,5.02-7.72c2.16-2.18,4.69-3.86,7.62-5.05
		c2.92-1.19,6.09-1.79,9.5-1.79c2.92,0,5.6,0.38,8.05,1.15c2.45,0.76,4.65,1.89,6.6,3.37c1.95,1.48,3.61,3.33,4.95,5.53l-4.04,3.71
		c-1.48-2.52-3.55-4.48-6.2-5.9c-2.65-1.42-5.77-2.12-9.37-2.12c-3.33,0-6.33,0.79-9.03,2.36c-2.7,1.57-4.84,3.74-6.44,6.5
		c-1.6,2.76-2.39,5.99-2.39,9.67c0,3.64,0.8,6.85,2.39,9.64c1.59,2.79,3.74,4.96,6.44,6.54c2.7,1.57,5.71,2.36,9.03,2.36
		c2.34,0,4.44-0.35,6.3-1.04c1.86-0.7,3.47-1.67,4.82-2.93s2.46-2.7,3.34-4.31s1.52-3.35,1.92-5.19h-15.7V114.37z"/>
	<path style="fill:#414042;" d="M460.51,89.94h29.99v5.39h-12.13v41.78h-5.73V95.33h-12.13V89.94z"/>
	<path style="fill:#414042;" d="M504.25,89.94v47.17h-5.73V89.94H504.25z M501.69,89.94h23.79v5.39h-23.79V89.94z M501.69,108.81
		h22.44v5.39h-22.44V108.81z M501.69,131.72h23.79v5.39h-23.79V131.72z"/>
	
		<text transform="matrix(1 0 0 1 57.6633 182.1851)" style="fill:#414042; font-family:'Jost-Regular'; font-size:33.1232px; letter-spacing:17;">Finance Limited</text>
	<g>
		<path style="fill:#009444;" d="M379.94,24.64c-1.04-0.58-2.31-0.58-3.36,0l-36.5,23.15l-4.75,2.97l0,0l-18.29,11.58
			c-0.96,0.59-1.55,1.65-1.54,2.78v74.9c0.02,1.82,1.49,3.3,3.32,3.32h59.54c1.82-0.02,3.28-1.5,3.28-3.32V27.58
			C381.62,26.37,380.98,25.26,379.94,24.64z M375.04,136.54H361.8V97.03c0.2-1.82-1.12-3.46-2.94-3.66
			c-1.82-0.2-3.46,1.12-3.66,2.94c-0.03,0.24-0.03,0.48,0,0.71v39.67H322.1V66.9l13.24-8.33v38.59c0,1.83,1.49,3.32,3.32,3.32
			s3.32-1.49,3.32-3.32V54.7l33.07-21.07V136.54z"/>
		<path style="fill:#009444;" d="M452.86,62.27l-18.29-11.58l0,0l-4.75-2.97l-36.5-23.15c-1.52-0.98-3.55-0.54-4.53,0.98
			c-0.35,0.55-0.53,1.18-0.52,1.83v112.63c0,1.82,1.46,3.3,3.28,3.32h59.54c1.82-0.02,3.3-1.49,3.32-3.32V65.04
			C454.41,63.91,453.83,62.86,452.86,62.27z M447.81,136.7H414.7V97.03c0.2-1.82-1.12-3.46-2.94-3.66c-1.82-0.2-3.46,1.12-3.66,2.94
			c-0.03,0.24-0.03,0.48,0,0.71v39.67h-13.24V33.63l33.07,20.84v42.44c0,1.83,1.49,3.32,3.32,3.32c1.83,0,3.31-1.49,3.32-3.32V58.33
			l13.24,8.33V136.7z"/>
	</g>
</g>
</svg>
