<svg xmlns="http://www.w3.org/2000/svg" width="36" height="39.5" viewBox="0 0 36 39.5">
  <g id="Group_252" data-name="Group 252" transform="translate(-1725 -32)">
    <g id="Group_250" data-name="Group 250" transform="translate(-4393 -538.408)">
      <path id="Path_3758" data-name="Path 3758" d="M40.5,83.3a4.279,4.279,0,1,0,8.549,0V83H40.5Z" transform="translate(6089.82 522.131)" fill="#3aa65a"/>
      <ellipse id="Ellipse_303" data-name="Ellipse 303" cx="7.5" cy="7" rx="7.5" ry="7" transform="translate(6139 570.408)" fill="#d0efd9"/>
      <path id="Path_3759" data-name="Path 3759" d="M49.189,45.669a3.031,3.031,0,0,0-2.866-3.017c-.7-1.106-2.363-4.224-2.967-9.957l-.2-2.615v-.151a8.492,8.492,0,0,1-7.04-8.4,12.33,12.33,0,0,1,.1-1.358c-.251-.1-.453-.151-.7-.251a2.943,2.943,0,0,0,.1-.654v-.251a3.017,3.017,0,1,0-6.034,0v.251a2.548,2.548,0,0,0,.1.654A10.589,10.589,0,0,0,22.034,30.08l-.2,2.615c-.654,5.733-2.263,8.85-2.967,9.957a3.019,3.019,0,0,0,.151,6.034H46.172A3.026,3.026,0,0,0,49.189,45.669Z" transform="translate(6102 555.439)" fill="#3aa65a"/>
    </g>
  </g>
</svg>
